<?xml version="1.0" encoding="us-ascii" standalone="no"?><svg xmlns="http://www.w3.org/2000/svg" xmlns:xlink="http://www.w3.org/1999/xlink" contentStyleType="text/css" height="4822.9167px" preserveAspectRatio="none" style="width:1841px;height:4822px;background:#FFFFFF;" version="1.1" viewBox="0 0 1841 4822" width="1841.6667px" zoomAndPan="magnify"><defs/><g><!--cluster                                           EduLife System                                          --><g id="cluster_                                          EduLife System                                          "><rect fill="#F5F5F5" height="4795.8333" rx="5.2083" ry="5.2083" style="stroke:#999999;stroke-width:2.0833333333333335;" width="1195.8333" x="414.5833" y="14.5833"/><text fill="#000000" font-family="Serif" font-size="41.6667" font-weight="bold" lengthAdjust="spacing" textLength="279.1667" x="872.9167" y="66.5771">EduLife System</text></g><!--cluster Learning & Certification Service--><g id="cluster_Learning &amp; Certification Service"><path d="M800,131.25 L1202.0833,131.25 A7.8125,7.8125 0 0 1 1207.2917,136.4583 L1221.875,189.0544 L1222.9167,189.0544 A5.2083,5.2083 0 0 1 1228.125,194.2627 L1228.125,2821.875 A5.2083,5.2083 0 0 1 1222.9167,2827.0833 L800,2827.0833 A5.2083,5.2083 0 0 1 794.7917,2821.875 L794.7917,136.4583 A5.2083,5.2083 0 0 1 800,131.25 " fill="#F5F5F5" style="stroke:#999999;stroke-width:3.125;stroke-dasharray:7.0,7.0;"/><line style="stroke:#999999;stroke-width:3.125;stroke-dasharray:7.0,7.0;" x1="794.7917" x2="1221.875" y1="189.0544" y2="189.0544"/><text fill="#000000" font-family="Serif" font-size="29.1667" font-style="italic" lengthAdjust="spacing" textLength="391.6667" x="807.2917" y="170.1457">Learning &amp; Certification Service</text></g><!--cluster Content, Group & Administration Service--><g id="cluster_Content, Group &amp; Administration Service"><path d="M748.9583,2877.0833 L1253.125,2877.0833 A7.8125,7.8125 0 0 1 1258.3333,2882.2917 L1272.9167,2934.8877 L1273.9583,2934.8877 A5.2083,5.2083 0 0 1 1279.1667,2940.096 L1279.1667,4755.2083 A5.2083,5.2083 0 0 1 1273.9583,4760.4167 L748.9583,4760.4167 A5.2083,5.2083 0 0 1 743.75,4755.2083 L743.75,2882.2917 A5.2083,5.2083 0 0 1 748.9583,2877.0833 " fill="#F5F5F5" style="stroke:#999999;stroke-width:3.125;stroke-dasharray:7.0,7.0;"/><line style="stroke:#999999;stroke-width:3.125;stroke-dasharray:7.0,7.0;" x1="743.75" x2="1272.9167" y1="2934.8877" y2="2934.8877"/><text fill="#000000" font-family="Serif" font-size="29.1667" font-style="italic" lengthAdjust="spacing" textLength="493.75" x="756.25" y="2915.979">Content, Group &amp; Administration Service</text></g><g id="elem_UC1"><ellipse cx="1010.368" cy="1327.4747" fill="#FFFFFF" rx="84.3264" ry="32.6831" style="stroke:#000000;stroke-width:1.0416666666666667;"/><text fill="#000000" font-family="Serif" font-size="22.9167" lengthAdjust="spacing" textLength="77.0833" x="971.8264" y="1332.797">Register</text></g><g id="elem_UC2"><ellipse cx="1010.9042" cy="1625.3914" fill="#FFFFFF" rx="75.4875" ry="32.6831" style="stroke:#000000;stroke-width:1.0416666666666667;"/><text fill="#000000" font-family="Serif" font-size="22.9167" lengthAdjust="spacing" textLength="64.5833" x="978.6125" y="1630.7137">Log In</text></g><g id="elem_UC3"><ellipse cx="1010.4854" cy="427.4747" fill="#FFFFFF" rx="116.7354" ry="32.6831" style="stroke:#000000;stroke-width:1.0416666666666667;"/><text fill="#000000" font-family="Serif" font-size="22.9167" lengthAdjust="spacing" textLength="122.9167" x="949.0271" y="432.797">Verify Email</text></g><g id="elem_UC4"><ellipse cx="1010.7382" cy="248.3081" fill="#FFFFFF" rx="121.1549" ry="32.6831" style="stroke:#000000;stroke-width:1.0416666666666667;"/><text fill="#000000" font-family="Serif" font-size="22.9167" lengthAdjust="spacing" textLength="129.1667" x="946.1549" y="253.6303">Sync Identity</text></g><g id="elem_UC5"><ellipse cx="1010.4548" cy="1885.8081" fill="#FFFFFF" rx="134.4131" ry="32.6831" style="stroke:#000000;stroke-width:1.0416666666666667;"/><text fill="#000000" font-family="Serif" font-size="22.9167" lengthAdjust="spacing" textLength="147.9167" x="936.4964" y="1891.1303">Manage Profile</text></g><g id="elem_UC6"><ellipse cx="1010.202" cy="1710.8081" fill="#FFFFFF" rx="129.9937" ry="32.6831" style="stroke:#000000;stroke-width:1.0416666666666667;"/><text fill="#000000" font-family="Serif" font-size="22.9167" lengthAdjust="spacing" textLength="141.6667" x="939.3687" y="1716.1303">Upload Avatar</text></g><g id="elem_UC7"><ellipse cx="1010.4548" cy="1539.9747" fill="#FFFFFF" rx="134.4131" ry="32.6831" style="stroke:#000000;stroke-width:1.0416666666666667;"/><text fill="#000000" font-family="Serif" font-size="22.9167" lengthAdjust="spacing" textLength="147.9167" x="936.4964" y="1545.297">Browse Courses</text></g><g id="elem_UC8"><ellipse cx="1010.0371" cy="1416.5908" fill="#FFFFFF" rx="151.7038" ry="35.3408" style="stroke:#000000;stroke-width:1.0416666666666667;"/><text fill="#000000" font-family="Serif" font-size="22.9167" lengthAdjust="spacing" textLength="189.5833" x="915.2454" y="1421.913">View Course Details</text></g><g id="elem_UC9"><ellipse cx="1010.1972" cy="1972.4561" fill="#FFFFFF" rx="139.3638" ry="32.8728" style="stroke:#000000;stroke-width:1.0416666666666667;"/><text fill="#000000" font-family="Serif" font-size="22.9167" lengthAdjust="spacing" textLength="156.25" x="932.0722" y="1977.7784">Enroll in Course</text></g><g id="elem_UC10"><ellipse cx="1010.0233" cy="2302.4747" fill="#FFFFFF" rx="132.94" ry="32.6831" style="stroke:#000000;stroke-width:1.0416666666666667;"/><text fill="#000000" font-family="Serif" font-size="22.9167" lengthAdjust="spacing" textLength="145.8333" x="937.1066" y="2307.797">Access Lessons</text></g><g id="elem_UC11"><ellipse cx="1010.8299" cy="2181.541" fill="#FFFFFF" rx="143.1216" ry="33.6243" style="stroke:#000000;stroke-width:1.0416666666666667;"/><text fill="#000000" font-family="Serif" font-size="22.9167" lengthAdjust="spacing" textLength="166.6667" x="927.4966" y="2186.8633">Complete Lesson</text></g><g id="elem_UC12"><ellipse cx="1010.0233" cy="2060.8081" fill="#FFFFFF" rx="132.94" ry="32.6831" style="stroke:#000000;stroke-width:1.0416666666666667;"/><text fill="#000000" font-family="Serif" font-size="22.9167" lengthAdjust="spacing" textLength="145.8333" x="937.1066" y="2066.1303">Track Progress</text></g><g id="elem_UC13"><ellipse cx="1010.276" cy="1239.1385" fill="#FFFFFF" rx="144.651" ry="33.9302" style="stroke:#000000;stroke-width:1.0416666666666667;"/><text fill="#000000" font-family="Serif" font-size="22.9167" lengthAdjust="spacing" textLength="170.8333" x="924.8594" y="1244.4608">Take MCQ Exam</text></g><g id="elem_UC14"><ellipse cx="1010.3067" cy="1117.0581" fill="#FFFFFF" rx="119.6817" ry="32.6831" style="stroke:#000000;stroke-width:1.0416666666666667;"/><text fill="#000000" font-family="Serif" font-size="22.9167" lengthAdjust="spacing" textLength="127.0833" x="946.765" y="1122.3803">Submit Exam</text></g><g id="elem_UC15"><ellipse cx="1009.9799" cy="996.2247" fill="#FFFFFF" rx="107.8966" ry="32.6831" style="stroke:#000000;stroke-width:1.0416666666666667;"/><text fill="#000000" font-family="Serif" font-size="22.9167" lengthAdjust="spacing" textLength="110.4167" x="954.7716" y="1001.547">View Result</text></g><g id="elem_UC16"><ellipse cx="1010.5979" cy="873.1613" fill="#FFFFFF" rx="153.3063" ry="35.6613" style="stroke:#000000;stroke-width:1.0416666666666667;"/><text fill="#000000" font-family="Serif" font-size="22.9167" lengthAdjust="spacing" textLength="193.75" x="913.7229" y="878.4835">Generate Certificate</text></g><g id="elem_UC17"><ellipse cx="1010.4889" cy="337.5144" fill="#FFFFFF" rx="157.3639" ry="36.4728" style="stroke:#000000;stroke-width:1.0416666666666667;"/><text fill="#000000" font-family="Serif" font-size="22.9167" lengthAdjust="spacing" textLength="204.1667" x="908.4055" y="342.8367">Download Certificate</text></g><g id="elem_UC18"><ellipse cx="1010.5512" cy="1798.3602" fill="#FFFFFF" rx="143.8845" ry="33.7769" style="stroke:#000000;stroke-width:1.0416666666666667;"/><text fill="#000000" font-family="Serif" font-size="22.9167" lengthAdjust="spacing" textLength="168.75" x="926.1762" y="1803.6825">Verify Certificate</text></g><g id="elem_UC19"><ellipse cx="1010.5135" cy="2389.6027" fill="#FFFFFF" rx="146.9718" ry="34.3944" style="stroke:#000000;stroke-width:1.0416666666666667;"/><text fill="#000000" font-family="Serif" font-size="22.9167" lengthAdjust="spacing" textLength="177.0833" x="921.9718" y="2394.925">View Gamification</text></g><g id="elem_UC20"><ellipse cx="1010.5512" cy="2479.6102" fill="#FFFFFF" rx="143.8845" ry="33.7769" style="stroke:#000000;stroke-width:1.0416666666666667;"/><text fill="#000000" font-family="Serif" font-size="22.9167" lengthAdjust="spacing" textLength="168.75" x="926.1762" y="2484.9325">View Leaderboard</text></g><g id="elem_UC21"><ellipse cx="1010.4715" cy="2572.511" fill="#FFFFFF" rx="165.6798" ry="38.136" style="stroke:#000000;stroke-width:1.0416666666666667;"/><text fill="#000000" font-family="Serif" font-size="22.9167" lengthAdjust="spacing" textLength="225" x="897.9715" y="2577.8332">View Learner Analytics</text></g><g id="elem_UC22"><ellipse cx="1010.7781" cy="2666.5306" fill="#FFFFFF" rx="146.1947" ry="34.2389" style="stroke:#000000;stroke-width:1.0416666666666667;"/><text fill="#000000" font-family="Serif" font-size="22.9167" lengthAdjust="spacing" textLength="175" x="923.2781" y="2671.8529">Use Study Planner</text></g><g id="elem_UC23"><ellipse cx="1010.5302" cy="2757.9394" fill="#FFFFFF" rx="150.1136" ry="35.0227" style="stroke:#000000;stroke-width:1.0416666666666667;"/><text fill="#000000" font-family="Serif" font-size="22.9167" lengthAdjust="spacing" textLength="185.4167" x="917.8219" y="2763.2616">Use Career Advisor</text></g><g id="elem_UC24"><ellipse cx="1010.276" cy="2995.3885" fill="#FFFFFF" rx="144.651" ry="33.9302" style="stroke:#000000;stroke-width:1.0416666666666667;"/><text fill="#000000" font-family="Serif" font-size="22.9167" lengthAdjust="spacing" textLength="170.8333" x="924.8594" y="3000.7108">Apply as Teacher</text></g><g id="elem_UC25"><ellipse cx="1010.0031" cy="4514.5006" fill="#FFFFFF" rx="172.5031" ry="39.5006" style="stroke:#000000;stroke-width:1.0416666666666667;"/><text fill="#000000" font-family="Serif" font-size="22.9167" lengthAdjust="spacing" textLength="241.6667" x="889.1697" y="4519.8229">Review Teacher Requests</text></g><g id="elem_UC26"><ellipse cx="1010.5595" cy="3556.6414" fill="#FFFFFF" rx="124.1011" ry="32.6831" style="stroke:#000000;stroke-width:1.0416666666666667;"/><text fill="#000000" font-family="Serif" font-size="22.9167" lengthAdjust="spacing" textLength="133.3333" x="943.8928" y="3561.9637">Create Course</text></g><g id="elem_UC27"><ellipse cx="1010.0643" cy="3179.0962" fill="#FFFFFF" rx="182.981" ry="41.5962" style="stroke:#000000;stroke-width:1.0416666666666667;"/><text fill="#000000" font-family="Serif" font-size="22.9167" lengthAdjust="spacing" textLength="266.6667" x="876.731" y="3184.4185">Manage Sections &amp; Lessons</text></g><g id="elem_UC28"><ellipse cx="1010.129" cy="3278.6925" fill="#FFFFFF" rx="154.9207" ry="35.9841" style="stroke:#000000;stroke-width:1.0416666666666667;"/><text fill="#000000" font-family="Serif" font-size="22.9167" lengthAdjust="spacing" textLength="197.9167" x="911.1707" y="3284.0147">Upload Cover Image</text></g><g id="elem_UC29"><ellipse cx="1010.2523" cy="3371.0088" fill="#FFFFFF" rx="147.7523" ry="34.5505" style="stroke:#000000;stroke-width:1.0416666666666667;"/><text fill="#000000" font-family="Serif" font-size="22.9167" lengthAdjust="spacing" textLength="179.1667" x="920.669" y="3376.3311">Create Final Exam</text></g><g id="elem_UC30"><ellipse cx="1010.8122" cy="4608.7247" fill="#FFFFFF" rx="128.5205" ry="32.6831" style="stroke:#000000;stroke-width:1.0416666666666667;"/><text fill="#000000" font-family="Serif" font-size="22.9167" lengthAdjust="spacing" textLength="139.5833" x="941.0205" y="4614.047">Publish Course</text></g><g id="elem_UC31"><ellipse cx="1010.4548" cy="4694.1414" fill="#FFFFFF" rx="134.4131" ry="32.6831" style="stroke:#000000;stroke-width:1.0416666666666667;"/><text fill="#000000" font-family="Serif" font-size="22.9167" lengthAdjust="spacing" textLength="147.9167" x="936.4964" y="4699.4637">Archive Course</text></g><g id="elem_UC32"><ellipse cx="1010.0806" cy="3464.5161" fill="#FFFFFF" rx="167.3723" ry="38.4745" style="stroke:#000000;stroke-width:1.0416666666666667;"/><text fill="#000000" font-family="Serif" font-size="22.9167" lengthAdjust="spacing" textLength="229.1667" x="895.4973" y="3469.8384">View Teacher Analytics</text></g><g id="elem_UC33"><ellipse cx="1010.3067" cy="3735.8081" fill="#FFFFFF" rx="119.6817" ry="32.6831" style="stroke:#000000;stroke-width:1.0416666666666667;"/><text fill="#000000" font-family="Serif" font-size="22.9167" lengthAdjust="spacing" textLength="127.0833" x="946.765" y="3741.1303">Create Group</text></g><g id="elem_UC34"><ellipse cx="1010.7405" cy="3827.3564" fill="#FFFFFF" rx="169.0739" ry="38.8148" style="stroke:#000000;stroke-width:1.0416666666666667;"/><text fill="#000000" font-family="Serif" font-size="22.9167" lengthAdjust="spacing" textLength="233.3333" x="894.0739" y="3832.6787">Manage Group Members</text></g><g id="elem_UC35"><ellipse cx="1010.0337" cy="3925.1317" fill="#FFFFFF" rx="163.1587" ry="37.6317" style="stroke:#000000;stroke-width:1.0416666666666667;"/><text fill="#000000" font-family="Serif" font-size="22.9167" lengthAdjust="spacing" textLength="218.75" x="900.6587" y="3930.454">Approve Join Requests</text></g><g id="elem_UC36"><ellipse cx="1010.3676" cy="4022.4902" fill="#FFFFFF" rx="170.7842" ry="39.1568" style="stroke:#000000;stroke-width:1.0416666666666667;"/><text fill="#000000" font-family="Serif" font-size="22.9167" lengthAdjust="spacing" textLength="237.5" x="891.6176" y="4027.8124">Attach Courses to Group</text></g><g id="elem_UC37"><ellipse cx="1010.0806" cy="4122.8495" fill="#FFFFFF" rx="167.3723" ry="38.4745" style="stroke:#000000;stroke-width:1.0416666666666667;"/><text fill="#000000" font-family="Serif" font-size="22.9167" lengthAdjust="spacing" textLength="229.1667" x="895.4973" y="4128.1717">Approve Group Courses</text></g><g id="elem_UC38"><ellipse cx="1010.0481" cy="3646.1763" fill="#FFFFFF" rx="159.0064" ry="36.8013" style="stroke:#000000;stroke-width:1.0416666666666667;"/><text fill="#000000" font-family="Serif" font-size="22.9167" lengthAdjust="spacing" textLength="208.3333" x="905.8814" y="3651.4986">View Group Analytics</text></g><g id="elem_UC39"><ellipse cx="1010.2398" cy="4220.798" fill="#FFFFFF" rx="162.3232" ry="37.4646" style="stroke:#000000;stroke-width:1.0416666666666667;"/><text fill="#000000" font-family="Serif" font-size="22.9167" lengthAdjust="spacing" textLength="216.6667" x="901.9065" y="4226.1202">Manage Users &amp; Roles</text></g><g id="elem_UC40"><ellipse cx="1010.0337" cy="4316.7984" fill="#FFFFFF" rx="163.1587" ry="37.6317" style="stroke:#000000;stroke-width:1.0416666666666667;"/><text fill="#000000" font-family="Serif" font-size="22.9167" lengthAdjust="spacing" textLength="218.75" x="900.6587" y="4322.1207">View Platform Metrics</text></g><g id="elem_UC41"><ellipse cx="1010.3676" cy="4414.1568" fill="#FFFFFF" rx="170.7842" ry="39.1568" style="stroke:#000000;stroke-width:1.0416666666666667;"/><text fill="#000000" font-family="Serif" font-size="22.9167" lengthAdjust="spacing" textLength="237.5" x="891.6176" y="4419.4791">View Platform Analytics</text></g><g id="elem_UC42"><ellipse cx="1010.8862" cy="3083.7247" fill="#FFFFFF" rx="135.8862" ry="32.6831" style="stroke:#000000;stroke-width:1.0416666666666667;"/><text fill="#000000" font-family="Serif" font-size="22.9167" lengthAdjust="spacing" textLength="150" x="935.8862" y="3089.047">Delete Account</text></g><!--entity V--><g id="elem_V"><ellipse cx="204.1667" cy="526.0417" fill="#F1F1F1" rx="16.6667" ry="16.6667" style="stroke:#000000;stroke-width:1.0416666666666667;"/><path d="M204.1667,542.7083 L204.1667,598.9583 M177.0833,559.375 L231.25,559.375 M204.1667,598.9583 L177.0833,630.2083 M204.1667,598.9583 L231.25,630.2083 " fill="none" style="stroke:#000000;stroke-width:1.0416666666666667;"/><text fill="#000000" font-family="Serif" font-size="22.9167" lengthAdjust="spacing" textLength="64.5833" x="171.875" y="661.5133">Visitor</text></g><!--entity L--><g id="elem_L"><ellipse cx="50" cy="1419.7917" fill="#F1F1F1" rx="16.6667" ry="16.6667" style="stroke:#000000;stroke-width:1.0416666666666667;"/><path d="M50,1436.4583 L50,1492.7083 M22.9167,1453.125 L77.0833,1453.125 M50,1492.7083 L22.9167,1523.9583 M50,1492.7083 L77.0833,1523.9583 " fill="none" style="stroke:#000000;stroke-width:1.0416666666666667;"/><text fill="#000000" font-family="Serif" font-size="22.9167" lengthAdjust="spacing" textLength="75" x="12.5" y="1555.2633">Learner</text></g><!--entity T--><g id="elem_T"><ellipse cx="204.1667" cy="2705.2083" fill="#F1F1F1" rx="16.6667" ry="16.6667" style="stroke:#000000;stroke-width:1.0416666666666667;"/><path d="M204.1667,2721.875 L204.1667,2778.125 M177.0833,2738.5417 L231.25,2738.5417 M204.1667,2778.125 L177.0833,2809.375 M204.1667,2778.125 L231.25,2809.375 " fill="none" style="stroke:#000000;stroke-width:1.0416666666666667;"/><text fill="#000000" font-family="Serif" font-size="22.9167" lengthAdjust="spacing" textLength="79.1667" x="164.5833" y="2840.6799">Teacher</text></g><!--entity GA--><g id="elem_GA"><ellipse cx="204.1667" cy="3748.9583" fill="#F1F1F1" rx="16.6667" ry="16.6667" style="stroke:#000000;stroke-width:1.0416666666666667;"/><path d="M204.1667,3765.625 L204.1667,3821.875 M177.0833,3782.2917 L231.25,3782.2917 M204.1667,3821.875 L177.0833,3853.125 M204.1667,3821.875 L231.25,3853.125 " fill="none" style="stroke:#000000;stroke-width:1.0416666666666667;"/><text fill="#000000" font-family="Serif" font-size="22.9167" lengthAdjust="spacing" textLength="58.3333" x="171.875" y="3884.4299">Group</text><text fill="#000000" font-family="Serif" font-size="22.9167" lengthAdjust="spacing" textLength="64.5833" x="171.875" y="3913.4786">Admin</text></g><!--entity PA--><g id="elem_PA"><ellipse cx="204.1667" cy="4336.4583" fill="#F1F1F1" rx="16.6667" ry="16.6667" style="stroke:#000000;stroke-width:1.0416666666666667;"/><path d="M204.1667,4353.125 L204.1667,4409.375 M177.0833,4369.7917 L231.25,4369.7917 M204.1667,4409.375 L177.0833,4440.625 M204.1667,4409.375 L231.25,4440.625 " fill="none" style="stroke:#000000;stroke-width:1.0416666666666667;"/><text fill="#000000" font-family="Serif" font-size="22.9167" lengthAdjust="spacing" textLength="87.5" x="160.4167" y="4471.9299">Platform</text><text fill="#000000" font-family="Serif" font-size="22.9167" lengthAdjust="spacing" textLength="64.5833" x="160.4167" y="4500.9786">Admin</text></g><!--entity FB--><g id="elem_FB"><ellipse cx="1754.1667" cy="871.875" fill="#F1F1F1" rx="16.6667" ry="16.6667" style="stroke:#000000;stroke-width:1.0416666666666667;"/><path d="M1754.1667,888.5417 L1754.1667,944.7917 M1727.0833,905.2083 L1781.25,905.2083 M1754.1667,944.7917 L1727.0833,976.0417 M1754.1667,944.7917 L1781.25,976.0417 " fill="none" style="stroke:#000000;stroke-width:1.0416666666666667;"/><text fill="#000000" font-family="Serif" font-size="22.9167" lengthAdjust="spacing" textLength="77.0833" x="1681.25" y="1007.3466">Firebase</text><text fill="#000000" font-family="Serif" font-size="22.9167" lengthAdjust="spacing" textLength="145.8333" x="1681.25" y="1036.3953">Authentication</text></g><!--entity CL--><g id="elem_CL"><ellipse cx="1754.1667" cy="2969.7917" fill="#F1F1F1" rx="16.6667" ry="16.6667" style="stroke:#000000;stroke-width:1.0416666666666667;"/><path d="M1754.1667,2986.4583 L1754.1667,3042.7083 M1727.0833,3003.125 L1781.25,3003.125 M1754.1667,3042.7083 L1727.0833,3073.9583 M1754.1667,3042.7083 L1781.25,3073.9583 " fill="none" style="stroke:#000000;stroke-width:1.0416666666666667;"/><text fill="#000000" font-family="Serif" font-size="22.9167" lengthAdjust="spacing" textLength="104.1667" x="1702.0833" y="3105.2633">Cloudinary</text><text fill="#000000" font-family="Serif" font-size="22.9167" lengthAdjust="spacing" textLength="70.8333" x="1702.0833" y="3134.3119">Storage</text></g><!--entity AI--><g id="elem_AI"><ellipse cx="1754.1667" cy="2680.2083" fill="#F1F1F1" rx="16.6667" ry="16.6667" style="stroke:#000000;stroke-width:1.0416666666666667;"/><path d="M1754.1667,2696.875 L1754.1667,2753.125 M1727.0833,2713.5417 L1781.25,2713.5417 M1754.1667,2753.125 L1727.0833,2784.375 M1754.1667,2753.125 L1781.25,2784.375 " fill="none" style="stroke:#000000;stroke-width:1.0416666666666667;"/><text fill="#000000" font-family="Serif" font-size="22.9167" lengthAdjust="spacing" textLength="102.0833" x="1703.125" y="2815.6799">Groq LLM</text><text fill="#000000" font-family="Serif" font-size="22.9167" lengthAdjust="spacing" textLength="100" x="1703.125" y="2844.7286">AI Service</text></g><!--link L to V--><g id="link_L_V"><path d="M55.3333,1401.7083 C62.7708,1232.9375 83.5,851.0208 122.9167,727.0833 C133.0208,695.3125 130.8856,694.3637 147.3231,668.9471 " fill="none" id="L-to-V" style="stroke:#000000;stroke-width:2.0833333333333335;"/><polygon fill="none" points="167.6875,637.4583,136.8268,662.1589,157.8193,675.7352,167.6875,637.4583" style="stroke:#000000;stroke-width:2.0833333333333335;"/></g><!--link V to UC1--><g id="link_V_UC1"><path d="M241.3125,562.2708 C280.5417,535.2083 343.5208,502.6875 381.25,539.5833 C410.7917,568.4792 369.4167,1253.3958 397.9167,1283.3333 C468.5208,1357.5 778.8542,1344.7917 927.8958,1333.9792 " fill="none" id="V-UC1" style="stroke:#000000;stroke-width:2.0833333333333335;"/></g><!--link V to UC2--><g id="link_V_UC2"><path d="M241.1458,581.875 C281.4167,575.25 346.5833,572.0417 381.25,610.4167 C417.4167,650.4375 360.8333,1542.0833 397.9167,1581.25 C469.6875,1657.0417 790.9167,1642.25 936.375,1631.2917 " fill="none" id="V-UC2" style="stroke:#000000;stroke-width:2.0833333333333335;"/></g><!--link V to UC7--><g id="link_V_UC7"><path d="M241.1042,572.875 C280.75,556.625 344.6875,539.125 381.25,575 C416.4375,609.5417 364.9583,1425.8125 397.9167,1462.5 C525.875,1604.9167 773.9167,1585.6875 911.1458,1561.3542 " fill="none" id="V-UC7" style="stroke:#000000;stroke-width:2.0833333333333335;"/></g><!--link V to UC18--><g id="link_V_UC18"><path d="M240.625,602.6875 C286.8958,621.0833 365.25,655.25 381.25,681.25 C412.4375,731.9167 357.1042,1708.7917 397.9167,1752.0833 C460.4167,1818.3958 713.125,1816.4375 873.1458,1807.9167 " fill="none" id="V-UC18" style="stroke:#000000;stroke-width:2.0833333333333335;"/></g><!--link L to UC5--><g id="link_L_UC5"><path d="M54.3542,1401.6875 C60.1042,1224.2083 78.125,815.625 122.9167,772.9167 C164.4792,733.2708 340.3125,724.2917 381.25,764.5833 C423.8958,806.5625 356.8125,1798.1875 397.9167,1841.6667 C461.6875,1909.125 722.8333,1904.875 882.1667,1895.375 " fill="none" id="L-UC5" style="stroke:#000000;stroke-width:2.0833333333333335;"/></g><!--link L to UC9--><g id="link_L_UC9"><path d="M61.6667,1401.5833 C90.3333,1181.7708 185.6875,607.2917 381.25,800 C425.8542,843.9583 354.9792,1881.5 397.9167,1927.0833 C460.8333,1993.9167 716.8125,1991.4167 876.625,1982.7292 " fill="none" id="L-UC9" style="stroke:#000000;stroke-width:2.0833333333333335;"/></g><!--link L to UC10--><g id="link_L_UC10"><path d="M92.0417,1464.9583 C161.375,1436.1667 303.9375,1391.0417 381.25,1466.6667 C411.375,1496.125 369.7083,2193.7083 397.9167,2225 C526.1042,2367.2292 774.0625,2348.0625 911.2083,2323.7917 " fill="none" id="L-UC10" style="stroke:#000000;stroke-width:2.0833333333333335;"/></g><!--link L to UC13--><g id="link_L_UC13"><path d="M55.4792,1402 C65.5208,1178.3958 98.0833,566.3125 156.25,497.9167 C194.75,452.6458 224.6458,465.625 283.3333,456.25 C326.3125,449.375 350.125,425.8542 381.25,456.25 C409.1667,483.5 371.875,1129.2917 397.9167,1158.3333 C522.8333,1297.6042 762.2083,1284.4375 901.1875,1262.1667 " fill="none" id="L-UC13" style="stroke:#000000;stroke-width:2.0833333333333335;"/></g><!--link L to UC17--><g id="link_L_UC17"><path d="M54.75,1402.0417 C63.0833,1172.2708 91.9167,530.25 156.25,462.5 C345.6875,263 703,285.7083 889,314.25 " fill="none" id="L-UC17" style="stroke:#000000;stroke-width:2.0833333333333335;"/></g><!--link L to UC19--><g id="link_L_UC19"><path d="M92.125,1480.5833 C171.1875,1476.125 342.9792,1471.5208 381.25,1512.5 C412.7708,1546.25 366.1667,2310.2083 397.9167,2343.75 C460.1042,2409.4583 709.5417,2408.0417 869.6875,2399.7083 " fill="none" id="L-UC19" style="stroke:#000000;stroke-width:2.0833333333333335;"/></g><!--link L to UC20--><g id="link_L_UC20"><path d="M91.875,1486.4167 C171.3125,1493.4792 345,1513.7708 381.25,1558.3333 C411.9375,1596.0417 364.5208,2398 397.9167,2433.3333 C460.5208,2499.5417 713.2083,2497.625 873.1875,2489.125 " fill="none" id="L-UC20" style="stroke:#000000;stroke-width:2.0833333333333335;"/></g><!--link L to UC21--><g id="link_L_UC21"><path d="M91.7917,1495.1667 C175.4792,1520.4583 363.7292,1579.5625 381.25,1604.1667 C410.8542,1645.75 362.9792,2485.6875 397.9167,2522.9167 C457.3958,2586.3125 689.8958,2589.125 850.1458,2582.875 " fill="none" id="L-UC21" style="stroke:#000000;stroke-width:2.0833333333333335;"/></g><!--link L to UC22--><g id="link_L_UC22"><path d="M92.625,1512.4583 C111.5,1525.3958 134.5417,1540.3125 156.25,1552.0833 C180.2083,1565.0833 366.1042,1627.3333 381.25,1650 C411.2083,1694.8542 360.8958,2581.6042 397.9167,2620.8333 C460.1042,2686.7292 710.2292,2685.1667 870.3542,2676.7917 " fill="none" id="L-UC22" style="stroke:#000000;stroke-width:2.0833333333333335;"/></g><!--link L to UC23--><g id="link_L_UC23"><path d="M92.0625,1533.6667 C110.1042,1554.1458 132.6667,1576.8958 156.25,1593.75 C178.5833,1609.7083 366.1875,1672.875 381.25,1695.8333 C412.1667,1742.9583 359.3125,2669.3333 397.9167,2710.4167 C528.6042,2849.4583 776.125,2817.0625 912.3958,2785.2917 " fill="none" id="L-UC23" style="stroke:#000000;stroke-width:2.0833333333333335;"/></g><!--link L to UC24--><g id="link_L_UC24"><path d="M91.8125,1560.75 C108.7917,1588.2917 130.6667,1617.8333 156.25,1639.5833 C177.1667,1657.3542 366.2083,1718.7083 381.25,1741.6667 C413.9375,1791.5208 361.8958,2767.0833 397.9167,2814.5833 C506.125,2957.2708 721.8333,2991.9583 865.6458,2998.1875 " fill="none" id="L-UC24" style="stroke:#000000;stroke-width:2.0833333333333335;"/></g><!--link L to UC42--><g id="link_L_UC42"><path d="M81.2292,1564.9375 C98.4583,1604.75 123.3958,1651.2917 156.25,1685.4167 C235.8958,1768.1667 322.6875,1713.7083 381.25,1812.5 C398.625,1841.8333 374.5208,3014.7917 397.9167,3039.5833 C461.5417,3107 722.0417,3102.8333 881.4583,3093.3542 " fill="none" id="L-UC42" style="stroke:#000000;stroke-width:2.0833333333333335;"/></g><!--link T to UC2--><g id="link_T_UC2"><path d="M206.125,2687.375 C205.9792,2310.4792 209.8125,750.0208 283.3333,679.1667 C314.6667,648.9583 350.1875,648.6875 381.25,679.1667 C417.0208,714.2708 363.4167,1544.875 397.9167,1581.25 C469.75,1657 790.9583,1642.2292 936.375,1631.2917 " fill="none" id="T-UC2" style="stroke:#000000;stroke-width:2.0833333333333335;"/></g><!--link T to UC26--><g id="link_T_UC26"><path d="M204.75,2850.1667 C203.3542,3014.0625 209.0208,3376.2083 283.3333,3470.8333 C355.6458,3562.9167 701.1875,3566.5833 887.9167,3561.4792 " fill="none" id="T-UC26" style="stroke:#000000;stroke-width:2.0833333333333335;"/></g><!--link T to UC27--><g id="link_T_UC27"><path d="M206.2708,2686.9375 C208.7917,2495.9375 230.4375,2047.7083 381.25,2195.8333 C418.0833,2232.0208 362.7292,3087.2292 397.9167,3125 C520.5,3256.5417 747.25,3238.0208 887.2292,3210.2292 " fill="none" id="T-UC27" style="stroke:#000000;stroke-width:2.0833333333333335;"/></g><!--link T to UC29--><g id="link_T_UC29"><path d="M208.7083,2850.1875 C214.125,2977.6458 231.1458,3216.4167 283.3333,3281.25 C353.6042,3368.5625 672.4375,3378.0208 863.125,3375.5 " fill="none" id="T-UC29" style="stroke:#000000;stroke-width:2.0833333333333335;"/></g><!--link T to UC28--><g id="link_T_UC28"><path d="M205.5,2687.4167 C206.1875,2551.9583 216.375,2289.2917 283.3333,2231.25 C316.2083,2202.75 350.2292,2200.7292 381.25,2231.25 C420.875,2270.2083 359.8542,3190.7708 397.9167,3231.25 C458.8125,3296.0208 700.6875,3296.6042 861.0625,3289.2292 " fill="none" id="T-UC28" style="stroke:#000000;stroke-width:2.0833333333333335;"/></g><!--link T to UC32--><g id="link_T_UC32"><path d="M210.0417,2850.4583 C218.6458,3017.625 242.1042,3386.2708 283.3333,3425 C362.6875,3499.5417 665.0833,3491.5208 853.3542,3478.3958 " fill="none" id="T-UC32" style="stroke:#000000;stroke-width:2.0833333333333335;"/></g><!--link GA to UC2--><g id="link_GA_UC2"><path d="M211.3542,3731.0625 C220.4792,3557.375 239.75,3179.3958 252.0833,2860.4167 C256.5625,2744.25 244.0625,1924 283.3333,1814.5833 C311.4167,1736.3125 324.5417,1705.7917 397.9167,1666.6667 C574.5833,1572.4375 822.0417,1594.3958 940.25,1612.5208 " fill="none" id="GA-UC2" style="stroke:#000000;stroke-width:2.0833333333333335;"/></g><!--link GA to UC33--><g id="link_GA_UC33"><path d="M241.1458,3815.875 C279.25,3804.125 342.25,3786.1667 397.9167,3777.0833 C567.75,3749.375 767.0833,3740.0625 890.5625,3736.9375 " fill="none" id="GA-UC33" style="stroke:#000000;stroke-width:2.0833333333333335;"/></g><!--link GA to UC34--><g id="link_GA_UC34"><path d="M240.7083,3827.0833 C342.6667,3827.0833 647.7083,3827.0833 841.1667,3827.0833 " fill="none" id="GA-UC34" style="stroke:#000000;stroke-width:2.0833333333333335;"/></g><!--link GA to UC35--><g id="link_GA_UC35"><path d="M241.2083,3837.6667 C279.3542,3848.75 342.4167,3865.8542 397.9167,3875 C549.7708,3900.0208 725.0625,3912.75 848.7292,3919.0625 " fill="none" id="GA-UC35" style="stroke:#000000;stroke-width:2.0833333333333335;"/></g><!--link GA to UC36--><g id="link_GA_UC36"><path d="M241.2083,3863.7708 C276.9375,3898.625 335.8333,3949.125 397.9167,3972.9167 C542.375,4028.2917 719.8125,4036.875 846.0625,4033.9583 " fill="none" id="GA-UC36" style="stroke:#000000;stroke-width:2.0833333333333335;"/></g><!--link GA to UC37--><g id="link_GA_UC37"><path d="M240.8125,3905.1875 C272.0833,3964.6667 324.5417,4041.4792 397.9167,4072.9167 C543.3125,4135.2083 725.8333,4141.9792 853.25,4136.7292 " fill="none" id="GA-UC37" style="stroke:#000000;stroke-width:2.0833333333333335;"/></g><!--link GA to UC38--><g id="link_GA_UC38"><path d="M241.0208,3793.5417 C277.0417,3761.1042 336.5625,3713.7083 397.9167,3691.6667 C547.6875,3637.8333 731.1042,3631.3125 857.5625,3635.1458 " fill="none" id="GA-UC38" style="stroke:#000000;stroke-width:2.0833333333333335;"/></g><!--link PA to UC2--><g id="link_PA_UC2"><path d="M228.75,4318.375 C268.6667,4142.3333 350.625,3755.9583 381.25,3425 C383.5,3400.6875 381.1667,1684.4375 397.9167,1666.6667 C469.6042,1590.6458 791.6667,1606.8542 936.8958,1618.4375 " fill="none" id="PA-UC2" style="stroke:#000000;stroke-width:2.0833333333333335;"/></g><!--link PA to UC25--><g id="link_PA_UC25"><path d="M252.2292,4428.9792 C290.7708,4440.4583 347.3958,4456 397.9167,4464.5833 C545.7292,4489.7292 715.875,4502.3333 838.9375,4508.6042 " fill="none" id="PA-UC25" style="stroke:#000000;stroke-width:2.0833333333333335;"/></g><!--link PA to UC30--><g id="link_PA_UC30"><path d="M252.3542,4463.7708 C288.3333,4498.6042 341.5417,4542.8542 397.9167,4564.5833 C560.0208,4627.0417 764.0417,4627.5625 890.3333,4619.7917 " fill="none" id="PA-UC30" style="stroke:#000000;stroke-width:2.0833333333333335;"/></g><!--link PA to UC31--><g id="link_PA_UC31"><path d="M248.6667,4510.6875 C258.7292,4528.7917 270.375,4546.9167 283.3333,4562.5 C324.6667,4612.1875 337.5625,4628.9583 397.9167,4652.0833 C558.1042,4713.4583 759.125,4713.9792 885.6875,4706 " fill="none" id="PA-UC31" style="stroke:#000000;stroke-width:2.0833333333333335;"/></g><!--link PA to UC39--><g id="link_PA_UC39"><path d="M252.6667,4366.875 C288.7917,4333.0625 342.0417,4290.0625 397.9167,4268.75 C545.9167,4212.3125 728.4167,4205.3333 855.125,4209.375 " fill="none" id="PA-UC39" style="stroke:#000000;stroke-width:2.0833333333333335;"/></g><!--link PA to UC40--><g id="link_PA_UC40"><path d="M252.2292,4400.1458 C290.75,4388.625 347.3958,4373.0833 397.9167,4364.5833 C549.3958,4339.0833 724.3542,4327.1042 848.0208,4321.5 " fill="none" id="PA-UC40" style="stroke:#000000;stroke-width:2.0833333333333335;"/></g><!--link PA to UC41--><g id="link_PA_UC41"><path d="M252.25,4414.5833 C363.6042,4414.5833 652.1667,4414.5833 838.875,4414.5833 " fill="none" id="PA-UC41" style="stroke:#000000;stroke-width:2.0833333333333335;"/></g><!--link UC2 to FB--><g id="link_UC2_FB"><path d="M1084.4583,1630.3125 C1229.1667,1639.3958 1548.3958,1650.7083 1627.0833,1581.25 C1705.7083,1511.8542 1736.25,1204.7083 1746.9375,1045.875 " fill="none" id="UC2-FB" style="stroke:#000000;stroke-width:2.0833333333333335;"/></g><!--link UC1 to FB--><g id="link_UC1_FB"><path d="M1082.5,1344.3125 C1205.9583,1370.3333 1464.6875,1404.6458 1627.0833,1283.3333 C1701.1042,1228.0417 1731.3125,1123.6458 1743.625,1046.3542 " fill="none" id="UC1-FB" style="stroke:#000000;stroke-width:2.0833333333333335;"/></g><!--link UC4 to FB--><g id="link_UC4_FB"><path d="M1096.0625,224.9583 C1226.7917,194.6042 1479.8958,158.9792 1627.0833,289.5833 C1709.6875,362.875 1738.4792,688.7083 1747.875,853.6667 " fill="none" id="UC4-FB" style="stroke:#000000;stroke-width:2.0833333333333335;"/></g><!--link UC3 to FB--><g id="link_UC3_FB"><path d="M1064.2292,456 C1173.0417,517.7917 1431.6042,669.9792 1627.0833,827.0833 C1643.9375,840.625 1661.0417,856.1042 1676.9792,871.4167 " fill="none" id="UC3-FB" style="stroke:#000000;stroke-width:2.0833333333333335;"/></g><!--link UC28 to CL--><g id="link_UC28_CL"><path d="M1138.9583,3299.625 C1270.1667,3314.25 1476.8333,3318.2917 1627.0833,3231.25 C1661.75,3211.1667 1688.875,3177.1458 1708.875,3143.8125 " fill="none" id="UC28-CL" style="stroke:#000000;stroke-width:2.0833333333333335;"/></g><!--link UC6 to CL--><g id="link_UC6_CL"><path d="M1135.125,1700.8542 C1294.7917,1691.3542 1561.2917,1686.6458 1627.0833,1754.1667 C1713.2708,1842.625 1650.5417,2743.9583 1677.0833,2864.5833 C1683.5208,2893.8125 1694.2292,2924.3333 1705.5833,2951.9167 " fill="none" id="UC6-CL" style="stroke:#000000;stroke-width:2.0833333333333335;"/></g><!--link UC23 to AI--><g id="link_UC23_AI"><path d="M1161.2708,2758.3333 C1327.4792,2758.3333 1587.75,2758.3333 1698.8958,2758.3333 " fill="none" id="UC23-AI" style="stroke:#000000;stroke-width:2.0833333333333335;"/></g><!--link UC2 to UC4--><g id="link_UC2_UC4"><path d="M936.4583,1631.5417 C789.5833,1642.6875 469.2083,1657.4375 397.9167,1581.25 C299.8542,1476.4583 299.3958,393.9375 397.9167,289.5833 C534.5625,144.8542 785.6964,185.949 918.1131,220.4907 " fill="none" id="UC2-to-UC4" style="stroke:#000000;stroke-width:2.0833333333333335;stroke-dasharray:7.0,7.0;"/><polygon fill="#000000" points="930.2083,223.6458,914.1689,210.8497,920.129,221.0166,909.962,226.9767,930.2083,223.6458" style="stroke:#000000;stroke-width:2.0833333333333335;"/><text fill="#000000" font-family="Serif" font-size="18.75" lengthAdjust="spacing" textLength="85.4167" x="289.5833" y="710.2722">&#171;include&#187;</text></g><!--link UC1 to UC3--><g id="link_UC1_UC3"><path d="M927.8333,1334.25 C777.4167,1345.2917 467.8542,1358.0417 397.9167,1283.3333 C272.7917,1149.6667 267.7083,592.1875 393.75,459.375 C460.625,388.8958 729.4628,400.9684 888.0462,414.6351 " fill="none" id="UC1-to-UC3" style="stroke:#000000;stroke-width:2.0833333333333335;stroke-dasharray:7.0,7.0;"/><polygon fill="#000000" points="900.5,415.7083,882.5348,405.7959,890.1218,414.8139,881.1037,422.401,900.5,415.7083" style="stroke:#000000;stroke-width:2.0833333333333335;"/><text fill="#000000" font-family="Serif" font-size="18.75" lengthAdjust="spacing" textLength="85.4167" x="289.5833" y="485.2722">&#171;include&#187;</text></g><!--link UC13 to UC14--><g id="link_UC13_UC14"><path d="M1010.4167,1204.6875 C1010.4167,1187.375 1010.4167,1179.0625 1010.4167,1162.0417 " fill="none" id="UC13-to-UC14" style="stroke:#000000;stroke-width:2.0833333333333335;stroke-dasharray:7.0,7.0;"/><polygon fill="#000000" points="1010.4167,1149.5417,1002.0833,1168.2917,1010.4167,1159.9583,1018.75,1168.2917,1010.4167,1149.5417" style="stroke:#000000;stroke-width:2.0833333333333335;"/><text fill="#000000" font-family="Serif" font-size="18.75" lengthAdjust="spacing" textLength="85.4167" x="943.75" y="1185.2722">&#171;include&#187;</text></g><!--link UC14 to UC15--><g id="link_UC14_UC15"><path d="M1010.4167,1084.2917 C1010.4167,1066.9583 1010.4167,1058.1458 1010.4167,1040.8125 " fill="none" id="UC14-to-UC15" style="stroke:#000000;stroke-width:2.0833333333333335;stroke-dasharray:7.0,7.0;"/><polygon fill="#000000" points="1010.4167,1028.3125,1002.0833,1047.0625,1010.4167,1038.7292,1018.75,1047.0625,1010.4167,1028.3125" style="stroke:#000000;stroke-width:2.0833333333333335;"/><text fill="#000000" font-family="Serif" font-size="18.75" lengthAdjust="spacing" textLength="85.4167" x="943.75" y="1064.4389">&#171;include&#187;</text></g><!--link UC11 to UC12--><g id="link_UC11_UC12"><path d="M1010.4167,2147.5833 C1010.4167,2130.5625 1010.4167,2122.4583 1010.4167,2105.5625 " fill="none" id="UC11-to-UC12" style="stroke:#000000;stroke-width:2.0833333333333335;stroke-dasharray:7.0,7.0;"/><polygon fill="#000000" points="1010.4167,2093.0625,1002.0833,2111.8125,1010.4167,2103.4792,1018.75,2111.8125,1010.4167,2093.0625" style="stroke:#000000;stroke-width:2.0833333333333335;"/><text fill="#000000" font-family="Serif" font-size="18.75" lengthAdjust="spacing" textLength="85.4167" x="943.75" y="2128.5014">&#171;include&#187;</text></g><!--link UC26 to UC27--><g id="link_UC26_UC27"><path d="M891.3125,3565.8125 C732.2917,3575.6458 463,3581.1667 397.9167,3512.5 C315.4167,3425.4583 372.9375,3360.8125 393.75,3242.7083 C409.1875,3155.125 649.1669,3153.4204 826.2086,3163.7121 " fill="none" id="UC26-to-UC27" style="stroke:#000000;stroke-width:2.0833333333333335;stroke-dasharray:7.0,7.0;"/><polygon fill="#000000" points="838.6875,3164.4375,820.4527,3155.0301,828.2884,3163.833,819.4855,3171.6687,838.6875,3164.4375" style="stroke:#000000;stroke-width:2.0833333333333335;"/><text fill="#000000" font-family="Serif" font-size="18.75" lengthAdjust="spacing" textLength="85.4167" x="289.5833" y="3268.6056">&#171;include&#187;</text></g><!--link UC15 to UC16--><g id="link_UC15_UC16"><path d="M1010.4167,963.5417 C1010.4167,946.75 1010.4167,938.6875 1010.4167,921.3958 " fill="none" id="UC15-to-UC16" style="stroke:#000000;stroke-width:2.0833333333333335;stroke-dasharray:7.0,7.0;"/><polygon fill="#000000" points="1010.4167,908.8958,1002.0833,927.6458,1010.4167,919.3125,1018.75,927.6458,1010.4167,908.8958" style="stroke:#000000;stroke-width:2.0833333333333335;"/><text fill="#000000" font-family="Serif" font-size="18.75" lengthAdjust="spacing" textLength="77.0833" x="947.9167" y="944.1264">&#171;extend&#187;</text></g><!--link UC16 to UC17--><g id="link_UC16_UC17"><path d="M917.5625,844.4375 C704,774.5833 210.1667,585.6458 397.9167,383.3333 C458.2917,318.2708 686.7449,317.811 847.8282,325.8944 " fill="none" id="UC16-to-UC17" style="stroke:#000000;stroke-width:2.0833333333333335;stroke-dasharray:7.0,7.0;"/><polygon fill="#000000" points="860.3125,326.5208,842.0037,317.2583,849.9089,325.9988,841.1684,333.904,860.3125,326.5208" style="stroke:#000000;stroke-width:2.0833333333333335;"/><text fill="#000000" font-family="Serif" font-size="18.75" lengthAdjust="spacing" textLength="77.0833" x="293.75" y="829.0222">&#171;extend&#187;</text></g><!--link UC7 to UC8--><g id="link_UC7_UC8"><path d="M1010.4167,1507.2917 C1010.4167,1490.5 1010.4167,1482.4375 1010.4167,1465.1458 " fill="none" id="UC7-to-UC8" style="stroke:#000000;stroke-width:2.0833333333333335;stroke-dasharray:7.0,7.0;"/><polygon fill="#000000" points="1010.4167,1452.6458,1002.0833,1471.3958,1010.4167,1463.0625,1018.75,1471.3958,1010.4167,1452.6458" style="stroke:#000000;stroke-width:2.0833333333333335;"/><text fill="#000000" font-family="Serif" font-size="18.75" lengthAdjust="spacing" textLength="77.0833" x="947.9167" y="1487.8764">&#171;extend&#187;</text></g><!--link UC5 to UC6--><g id="link_UC5_UC6"><path d="M880.3333,1893.9375 C661.6458,1904.4375 257.2917,1905.1875 397.9167,1754.1667 C461.75,1685.6042 714.1487,1689.793 873.9195,1699.6472 " fill="none" id="UC5-to-UC6" style="stroke:#000000;stroke-width:2.0833333333333335;stroke-dasharray:7.0,7.0;"/><polygon fill="#000000" points="886.3958,1700.4167,868.1944,1690.9449,875.9989,1699.7754,867.1684,1707.5799,886.3958,1700.4167" style="stroke:#000000;stroke-width:2.0833333333333335;"/><text fill="#000000" font-family="Serif" font-size="18.75" lengthAdjust="spacing" textLength="77.0833" x="293.75" y="1843.6056">&#171;extend&#187;</text></g><!--link UC26 to UC28--><g id="link_UC26_UC28"><path d="M891.8125,3565.9167 C732.6667,3575.9792 462.4792,3581.8333 397.9167,3512.5 C341.125,3451.5208 341.2292,3386.0833 397.9167,3325 C458.4792,3259.7292 688.2035,3259.4712 849.2869,3267.6379 " fill="none" id="UC26-to-UC28" style="stroke:#000000;stroke-width:2.0833333333333335;stroke-dasharray:7.0,7.0;"/><polygon fill="#000000" points="861.7708,3268.2708,843.4668,3258.9988,851.3675,3267.7434,842.6229,3275.6441,861.7708,3268.2708" style="stroke:#000000;stroke-width:2.0833333333333335;"/><text fill="#000000" font-family="Serif" font-size="18.75" lengthAdjust="spacing" textLength="77.0833" x="293.75" y="3412.3556">&#171;extend&#187;</text></g><!--link UC9 to UC10--><g id="link_UC9_UC10"><path d="M877.4375,1962.375 C716.8958,1952.8958 460.5833,1949.375 397.9167,2016.6667 C334.8125,2084.4375 336.6667,2155.5625 397.9167,2225 C525.1667,2369.2708 762.8031,2351.346 900.8031,2326.4294 " fill="none" id="UC9-to-UC10" style="stroke:#000000;stroke-width:2.0833333333333335;stroke-dasharray:7.0,7.0;"/><polygon fill="#000000" points="913.1042,2324.2083,893.1718,2319.3391,902.8533,2326.0592,896.1332,2335.7406,913.1042,2324.2083" style="stroke:#000000;stroke-width:2.0833333333333335;"/><text fill="#000000" font-family="Serif" font-size="18.75" lengthAdjust="spacing" textLength="77.0833" x="293.75" y="2260.2722">&#171;extend&#187;</text></g><!--link UC10 to UC11--><g id="link_UC10_UC11"><path d="M1010.4167,2269.7083 C1010.4167,2252.9167 1010.4167,2244.9375 1010.4167,2227.9167 " fill="none" id="UC10-to-UC11" style="stroke:#000000;stroke-width:2.0833333333333335;stroke-dasharray:7.0,7.0;"/><polygon fill="#000000" points="1010.4167,2215.4167,1002.0833,2234.1667,1010.4167,2225.8333,1018.75,2234.1667,1010.4167,2215.4167" style="stroke:#000000;stroke-width:2.0833333333333335;"/><text fill="#000000" font-family="Serif" font-size="18.75" lengthAdjust="spacing" textLength="77.0833" x="947.9167" y="2250.3764">&#171;extend&#187;</text></g><!--SRC=[pLVTRjis5BxtKn0fiBR0EbW__XkA08fYEzvanxETR0LwmqYqJKGMNOfAudK1-WYxw5wmJx93IPHeAG6A3TFg1C79-Jxoy7o7FAHVeY-VFts3lwsN20s3nADhWhvy-epc8HPapVYEe80WQM11MOH8X4AwYOZaNqqzT1KJv6BuSqxnXkCT-B_H15iXMGia6E9qinKee9puCgLMxEEGe1r-GARTRpzOdNQ_rOflQRJ7a13QiOZvMyv02S4JeY7n5WVidaORjCPXh2C1MUCa52CMYHc6WITBmkdwv6d6alvEa67gu9uYiztMF7CS13AGpfgnWCHaZmoTkC3HhNHQRJq7cIgEDf3cnnQ2pndsRpUS9L7Wif1nzEkM2f8XZ0U4Pzwp46YfjrYcsIx_5mUOxuQ5GUjHZxM7GNZpNAGNeuxygSLwCKW_nz4CknAD2XnINnkSkGCSRqbb6KbCVBal_sN2Xd4yBVO543_-aw4Ev-nUPrUWOk2W9K_HNt_-fx_o07l3qGevxkfoiMmYOYiJx-IQnXIC4uHZTAsS7i4y8fdJKyuLmVusTwwKSmnrtB-Fd617enGPEmgINKlsAXsTEwsMXzwy-UCKWZKax68olb3AebV31q5uX4EqFCI2xEBNJOezWZvt0mS194d4baI2-cadJxKPdIcQ6x84EWpcX_VH4ZnmWbE6wscoVq2UDuM99WZwsHtrCuepQKhMvRlbQZX5PvTNitDdyQuH6SlMUOA- -gDkqgpWNp_k13fBsaHK4ysEXUpyto6NS47NUVdA2cIzI7vUBSY6Ga3-MfRboZLAn6CRD8bolrdwh-MzT4337QPXZbebkZn4Ffe4SjE8GmxR9Jp5aLpZdBCr3KcETqhyQXyo723d3WkirjGjuJFeUVBrm18UapZ7UzhQABdFKNHE1AnGaVebQHXn5eQ8HZapPmnAXkFx98QU0dzOf6OmsYN1PRjzI0J9AOgXgRVYK0wPvuO3HH4q6LVubg2f-miQFk2TmdKXaviT5KUeNKbqGM9u3oXKKt5Ce2t2OqohlyhIqDGyP_THAlSJj5wju4-G-fK5ZV6ks6sACwXmO7V23NZ3C0_KtchNARAl8mSQu06QZvBFrFILZyYbI8A3V7P6KR61JVEOus9Ev5J17OrPGSfqVgmS71TkKzYutwFqke3Zazu8S3puy-V7sU_3GthNPFUEYc3hH-nEPfKJe6eV4XAB8YcjRYudQTNqRMbsQwTdcRr2OrZXyHOrUxMJvB8xY3dPmJX5wjS2ZgYyQhIjPcfLcoSt8Ostnwkoj9evtD_IkygoBQDIL9L-jQYMMLjEAh-2hLhwMNMcP7T3U36BVLGI3bcZdnWSyOhQbgQs8mGiIJKJ-Sm_2jojpvX5Fku-LhNzPAHQclrQ7h0zkQpXWeNbRDNZefudaA_WvNHs-pbUDR2j5UASf4qBsXiyQrNZiCtyC3msTITVJvOJUEOWRpBxkPbNv3KyvjBRBJTCPVGAgD_S2zfPp8PDPkzbANQKCL06N6dAiWghLrW5ponuq8ALPHPMCHQwNcx1fcf8pjNGSIyQbNEbzf0okeNLAwn1OVMLPJMcoNXnUJL7plbqCcjGbx6ZX54MDE_2j4kpKvhTqkoLPcDdSUuvgz7bOjguLlD2gyBg52PSheLfbEQWCEsI0Esz8Qs6lws6YvdZgQzKpOa5uiXauPidDAN2iWlBoYr9x4iRle72ruRSajwKqToNphTlQUI7IK1EJz5Y27jiSZbRNapcpSdrmwdS6-X7VIcfUYbWrG4hGumdnjWvrAb3-No6MOFCRWQPlGhKM0d80ppcW_-f0Y1MfamtJL-jfPLwCgHNHNePqA_wywbgCnKIrqOCyX3jMl1sZXZ7oDy0]--></g></svg>